<svg width="172" height="62" viewBox="0 0 172 62" fill="none" xmlns="http://www.w3.org/2000/svg">
<path fill-rule="evenodd" clip-rule="evenodd" d="M30 34C46.0163 34 59 26.3889 59 17C59 16.6643 58.9834 16.3309 58.9507 16H52.5H47.9384H29.5C28.1193 16 27 17.1193 27 18.5C27 19.8807 28.1193 21 29.5 21H46.9758C44.5048 25.6608 37.8373 29 30 29C20.0589 29 12 23.6274 12 17C12 10.3726 20.0589 5 30 5C34.565 5 38.7331 6.13293 41.9062 8H54.6072C49.483 3.19568 40.3781 0 30 0C13.9837 0 1 7.61115 1 17C1 26.3889 13.9837 34 30 34ZM143 34C159.016 34 172 26.3889 172 17C172 7.61115 159.016 0 143 0C126.984 0 114 7.61115 114 17C114 26.3889 126.984 34 143 34ZM143 29C152.941 29 161 23.6274 161 17C161 10.3726 152.941 5 143 5C133.059 5 125 10.3726 125 17C125 23.6274 133.059 29 143 29ZM69 0H74L86 20L98 0H103L113 34H103L98.2683 15.7492L88 33H86H84L73.7317 15.7492L69 34H59L69 0Z" fill="#005CAA"/>
<path d="M10.7377 49.7176V55.1719C10.577 55.3862 10.3326 55.654 10.0045 55.9754C9.68304 56.2969 9.23103 56.5815 8.64844 56.8292C8.06585 57.077 7.30246 57.2009 6.35826 57.2009C5.60156 57.2009 4.90848 57.0737 4.27902 56.8192C3.65625 56.5647 3.11719 56.183 2.66183 55.6741C2.21317 55.1585 1.86496 54.519 1.61719 53.7556C1.36942 52.9855 1.24554 52.0848 1.24554 51.0536V48.3114C1.24554 47.2868 1.34933 46.3895 1.55692 45.6194C1.76451 44.8493 2.07254 44.2098 2.48103 43.7009C2.89621 43.192 3.40848 42.8103 4.01786 42.5558C4.63393 42.3013 5.35045 42.1741 6.16741 42.1741C7.11161 42.1741 7.91518 42.3516 8.57812 42.7065C9.24107 43.0614 9.75335 43.5737 10.115 44.2433C10.4833 44.9129 10.6908 45.7165 10.7377 46.654H8.88951C8.84263 46.0513 8.7154 45.5357 8.50781 45.1071C8.30022 44.6719 8.00558 44.3404 7.62388 44.1127C7.24219 43.8783 6.7567 43.7612 6.16741 43.7612C5.60491 43.7612 5.12946 43.8549 4.74107 44.0424C4.35268 44.2299 4.0346 44.5112 3.78683 44.8862C3.54576 45.2612 3.3683 45.7333 3.25446 46.3025C3.14732 46.8717 3.09375 47.5346 3.09375 48.2913V51.0536C3.09375 51.8304 3.17076 52.5067 3.32478 53.0826C3.47879 53.6585 3.69643 54.1339 3.97768 54.5089C4.26562 54.8839 4.61049 55.1652 5.01228 55.3527C5.41406 55.5335 5.86607 55.6239 6.3683 55.6239C6.9375 55.6239 7.38616 55.5636 7.71429 55.4431C8.04241 55.3225 8.29353 55.1853 8.46763 55.0313C8.64844 54.8772 8.79241 54.7533 8.89955 54.6596V51.2846H6.21763V49.7176H10.7377ZM15.3984 41.5714V57H13.6306V41.5714H15.3984ZM17.8393 52.0882V51.0536C17.8393 50.2098 17.9464 49.4699 18.1607 48.8337C18.375 48.1908 18.673 47.6551 19.0547 47.2266C19.4364 46.798 19.8817 46.4766 20.3906 46.2623C20.8996 46.0413 21.4453 45.9308 22.0279 45.9308C22.6239 45.9308 23.1763 46.0413 23.6853 46.2623C24.1942 46.4766 24.6395 46.798 25.0212 47.2266C25.4096 47.6551 25.7109 48.1908 25.9252 48.8337C26.1395 49.4699 26.2467 50.2098 26.2467 51.0536V52.0882C26.2467 52.9319 26.1395 53.6752 25.9252 54.3181C25.7109 54.9542 25.4129 55.4866 25.0312 55.9152C24.6496 56.3438 24.2042 56.6652 23.6953 56.8795C23.1864 57.0937 22.6373 57.2009 22.048 57.2009C21.4587 57.2009 20.9096 57.0937 20.4007 56.8795C19.8917 56.6652 19.4431 56.3438 19.0547 55.9152C18.673 55.4866 18.375 54.9542 18.1607 54.3181C17.9464 53.6752 17.8393 52.9319 17.8393 52.0882ZM19.6172 51.0536V52.0882C19.6172 52.6842 19.6775 53.2065 19.798 53.6551C19.9185 54.1038 20.0893 54.4788 20.3103 54.7801C20.5312 55.0815 20.7891 55.3092 21.0837 55.4632C21.3783 55.6105 21.6998 55.6842 22.048 55.6842C22.4498 55.6842 22.8013 55.6105 23.1027 55.4632C23.4107 55.3092 23.6652 55.0815 23.8661 54.7801C24.067 54.4788 24.2176 54.1038 24.3181 53.6551C24.4185 53.2065 24.4687 52.6842 24.4687 52.0882V51.0536C24.4687 50.4576 24.4085 49.9386 24.2879 49.4967C24.1674 49.048 23.9967 48.673 23.7757 48.3717C23.5547 48.0636 23.2935 47.8359 22.9922 47.6886C22.6975 47.5346 22.3761 47.4576 22.0279 47.4576C21.6864 47.4576 21.3683 47.5346 21.0737 47.6886C20.779 47.8359 20.5212 48.0636 20.3002 48.3717C20.0859 48.673 19.9185 49.048 19.798 49.4967C19.6775 49.9386 19.6172 50.4576 19.6172 51.0536ZM28.5368 41.5714H30.3147V54.8906L30.1641 57H28.5368V41.5714ZM36.4118 51.0737V52.0882C36.4118 52.9453 36.3315 53.6953 36.1708 54.3382C36.0167 54.9743 35.7857 55.5067 35.4777 55.9353C35.1696 56.3571 34.7946 56.6752 34.3527 56.8895C33.9107 57.0971 33.4051 57.2009 32.8359 57.2009C32.2734 57.2009 31.7879 57.0871 31.3795 56.8594C30.971 56.6317 30.6295 56.3036 30.3549 55.875C30.0804 55.4464 29.8627 54.9275 29.702 54.3181C29.548 53.7087 29.4408 53.0223 29.3806 52.2589V50.9029C29.4408 50.1328 29.548 49.4431 29.702 48.8337C29.856 48.2176 30.0703 47.6953 30.3449 47.2667C30.6194 46.8315 30.9609 46.5 31.3694 46.2723C31.7779 46.0446 32.2634 45.9308 32.8259 45.9308C33.4018 45.9308 33.9107 46.0313 34.3527 46.2321C34.8013 46.433 35.1763 46.7444 35.4777 47.1663C35.7857 47.5815 36.0167 48.1138 36.1708 48.7634C36.3315 49.4063 36.4118 50.1763 36.4118 51.0737ZM34.6339 52.0882V51.0737C34.6339 50.471 34.5937 49.9453 34.5134 49.4967C34.4397 49.048 34.3158 48.6763 34.1417 48.3817C33.9676 48.0871 33.7333 47.8661 33.4386 47.7188C33.1507 47.5714 32.7924 47.4978 32.3638 47.4978C32.0022 47.4978 31.6842 47.5714 31.4096 47.7188C31.1417 47.8661 30.9107 48.067 30.7165 48.3214C30.5223 48.5692 30.3616 48.8538 30.2344 49.1752C30.1071 49.49 30.0134 49.8181 29.9531 50.1596V53.0123C30.0402 53.4475 30.1775 53.8661 30.365 54.2679C30.5592 54.6629 30.8203 54.9877 31.1484 55.2422C31.4766 55.4967 31.885 55.6239 32.3739 55.6239C32.7824 55.6239 33.1272 55.5536 33.4085 55.4129C33.6964 55.2723 33.9308 55.058 34.1116 54.7701C34.2924 54.4754 34.423 54.1071 34.5033 53.6652C34.5904 53.2165 34.6339 52.6908 34.6339 52.0882ZM44.0056 55.1417V49.2455C44.0056 48.817 43.9386 48.4721 43.8047 48.2109C43.6775 47.9498 43.4833 47.7589 43.2221 47.6384C42.9676 47.5179 42.6462 47.4576 42.2578 47.4576C41.8828 47.4576 41.558 47.5346 41.2835 47.6886C41.0156 47.8426 40.808 48.0469 40.6607 48.3013C40.5201 48.5558 40.4498 48.8371 40.4498 49.1451H38.6719C38.6719 48.7567 38.7556 48.3717 38.923 47.99C39.0971 47.6083 39.3449 47.2634 39.6663 46.9554C39.9877 46.6406 40.3728 46.3929 40.8214 46.2121C41.2768 46.0246 41.7857 45.9308 42.3482 45.9308C43.0179 45.9308 43.6105 46.0413 44.1261 46.2623C44.6417 46.4766 45.0469 46.8281 45.3415 47.317C45.6362 47.8058 45.7835 48.4554 45.7835 49.2656V54.6295C45.7835 54.9911 45.8103 55.3761 45.8638 55.7846C45.9241 56.1931 46.0078 56.5446 46.115 56.8393V57H44.2768C44.1897 56.7857 44.1228 56.5011 44.0759 56.1462C44.029 55.7846 44.0056 55.4498 44.0056 55.1417ZM44.2868 50.4107L44.3069 51.7165H43.0714C42.6496 51.7165 42.2645 51.7634 41.9163 51.8571C41.5748 51.9509 41.2801 52.0882 41.0324 52.269C40.7846 52.4431 40.5937 52.6607 40.4598 52.9219C40.3326 53.183 40.269 53.481 40.269 53.8158C40.269 54.2511 40.3292 54.5993 40.4498 54.8605C40.5703 55.115 40.7511 55.2991 40.9922 55.4129C41.2333 55.5268 41.5379 55.5837 41.9062 55.5837C42.3549 55.5837 42.75 55.4799 43.0915 55.2723C43.433 55.0647 43.6975 54.8136 43.885 54.519C44.0792 54.2243 44.1696 53.9498 44.1562 53.6953L44.548 54.529C44.5212 54.7902 44.4342 55.0748 44.2868 55.3828C44.1462 55.6842 43.9487 55.9754 43.6942 56.2567C43.4397 56.5313 43.1384 56.7589 42.7902 56.9397C42.4487 57.1138 42.0636 57.2009 41.635 57.2009C41.0056 57.2009 40.4531 57.0804 39.9777 56.8393C39.5089 56.5982 39.144 56.2433 38.8828 55.7746C38.6217 55.3058 38.4911 54.7266 38.4911 54.0368C38.4911 53.5145 38.5815 53.0324 38.7623 52.5904C38.9431 52.1484 39.2109 51.7667 39.5658 51.4453C39.9208 51.1172 40.3661 50.8627 40.9018 50.6819C41.4442 50.5011 42.0703 50.4107 42.7801 50.4107H44.2868ZM50.4542 41.5714V57H48.6864V41.5714H50.4542ZM62.8895 51.2645H59.6953V49.6875H62.8895C63.4922 49.6875 63.9777 49.567 64.346 49.3259C64.721 49.0848 64.9922 48.75 65.1596 48.3214C65.3337 47.8929 65.4208 47.404 65.4208 46.8549C65.4208 46.3527 65.3337 45.8806 65.1596 45.4386C64.9922 44.9967 64.721 44.6417 64.346 44.3739C63.9777 44.0993 63.4922 43.9621 62.8895 43.9621H60.077V57H58.2288V42.375H62.8895C63.8337 42.375 64.6306 42.5658 65.2801 42.9475C65.9297 43.3292 66.4219 43.8583 66.7567 44.5346C67.0982 45.2042 67.269 45.971 67.269 46.8348C67.269 47.7723 67.0982 48.5725 66.7567 49.2355C66.4219 49.8984 65.9297 50.404 65.2801 50.7522C64.6306 51.0938 63.8337 51.2645 62.8895 51.2645ZM74.6016 55.1417V49.2455C74.6016 48.817 74.5346 48.4721 74.4007 48.2109C74.2734 47.9498 74.0792 47.7589 73.8181 47.6384C73.5636 47.5179 73.2422 47.4576 72.8538 47.4576C72.4788 47.4576 72.154 47.5346 71.8795 47.6886C71.6116 47.8426 71.404 48.0469 71.2567 48.3013C71.1161 48.5558 71.0458 48.8371 71.0458 49.1451H69.2679C69.2679 48.7567 69.3516 48.3717 69.519 47.99C69.6931 47.6083 69.9408 47.2634 70.2623 46.9554C70.5837 46.6406 70.9687 46.3929 71.4174 46.2121C71.8728 46.0246 72.3817 45.9308 72.9442 45.9308C73.6138 45.9308 74.2065 46.0413 74.7221 46.2623C75.2377 46.4766 75.6429 46.8281 75.9375 47.317C76.2321 47.8058 76.3795 48.4554 76.3795 49.2656V54.6295C76.3795 54.9911 76.4062 55.3761 76.4598 55.7846C76.5201 56.1931 76.6038 56.5446 76.7109 56.8393V57H74.8728C74.7857 56.7857 74.7187 56.5011 74.6719 56.1462C74.625 55.7846 74.6016 55.4498 74.6016 55.1417ZM74.8828 50.4107L74.9029 51.7165H73.6674C73.2455 51.7165 72.8605 51.7634 72.5123 51.8571C72.1708 51.9509 71.8761 52.0882 71.6283 52.269C71.3806 52.4431 71.1897 52.6607 71.0558 52.9219C70.9286 53.183 70.865 53.481 70.865 53.8158C70.865 54.2511 70.9252 54.5993 71.0458 54.8605C71.1663 55.115 71.3471 55.2991 71.5882 55.4129C71.8292 55.5268 72.1339 55.5837 72.5022 55.5837C72.9509 55.5837 73.346 55.4799 73.6875 55.2723C74.029 55.0647 74.2935 54.8136 74.481 54.519C74.6752 54.2243 74.7656 53.9498 74.7522 53.6953L75.144 54.529C75.1172 54.7902 75.0301 55.0748 74.8828 55.3828C74.7422 55.6842 74.5446 55.9754 74.2902 56.2567C74.0357 56.5313 73.7344 56.7589 73.3862 56.9397C73.0446 57.1138 72.6596 57.2009 72.231 57.2009C71.6016 57.2009 71.0491 57.0804 70.5737 56.8393C70.1049 56.5982 69.74 56.2433 69.4788 55.7746C69.2176 55.3058 69.0871 54.7266 69.0871 54.0368C69.0871 53.5145 69.1775 53.0324 69.3583 52.5904C69.5391 52.1484 69.8069 51.7667 70.1618 51.4453C70.5167 51.1172 70.9621 50.8627 71.4978 50.6819C72.0402 50.5011 72.6663 50.4107 73.3761 50.4107H74.8828ZM81.5022 55.875L83.923 46.1317H85.8114L82.2254 58.6775C82.1384 58.9453 82.0212 59.2333 81.8739 59.5413C81.7333 59.856 81.5525 60.154 81.3315 60.4353C81.1105 60.7165 80.846 60.9442 80.5379 61.1183C80.2299 61.2991 79.8683 61.3895 79.4531 61.3895C79.3259 61.3895 79.1618 61.3694 78.9609 61.3292C78.7667 61.2891 78.6261 61.2556 78.5391 61.2288V59.7221C78.5792 59.7288 78.6429 59.7355 78.7299 59.7422C78.817 59.7556 78.8806 59.7623 78.9208 59.7623C79.269 59.7623 79.5636 59.7054 79.8047 59.5915C80.0525 59.4844 80.2634 59.3002 80.4375 59.0391C80.6116 58.7846 80.7589 58.433 80.8795 57.9844L81.5022 55.875ZM79.9353 46.1317L82.0949 54.5692L82.5569 56.5279L81.2913 57.2109L77.9967 46.1317H79.9353ZM89.3371 48.2913V57H87.5692V46.1317H89.2366L89.3371 48.2913ZM88.9754 51.154L88.1518 51.1239C88.1451 50.3806 88.2187 49.6942 88.3728 49.0647C88.5268 48.4286 88.7578 47.8761 89.0658 47.4074C89.3806 46.9386 89.7723 46.577 90.2411 46.3225C90.7165 46.0614 91.269 45.9308 91.8984 45.9308C92.3136 45.9308 92.6987 46.0045 93.0536 46.1518C93.4152 46.2924 93.7299 46.5167 93.9978 46.8248C94.2656 47.1328 94.4732 47.5279 94.6205 48.01C94.7746 48.4922 94.8516 49.0748 94.8516 49.7578V57H93.0737V49.8482C93.0737 49.279 92.9967 48.8237 92.8426 48.4821C92.6953 48.1406 92.4844 47.8929 92.2098 47.7388C91.9353 47.5781 91.6071 47.4978 91.2254 47.4978C90.7902 47.4978 90.4252 47.5949 90.1306 47.7891C89.8426 47.9833 89.6116 48.2511 89.4375 48.5926C89.2701 48.9342 89.1496 49.3259 89.0759 49.7679C89.0089 50.2031 88.9754 50.6652 88.9754 51.154ZM94.8315 50.1295L93.6462 50.5112C93.6395 49.9152 93.7132 49.3426 93.8672 48.7935C94.0212 48.2444 94.2489 47.7556 94.5502 47.327C94.8583 46.8984 95.24 46.5603 95.6953 46.3125C96.1507 46.058 96.6797 45.9308 97.2824 45.9308C97.7779 45.9308 98.2165 46.0078 98.5982 46.1618C98.9799 46.3158 99.3013 46.5536 99.5625 46.875C99.8304 47.1897 100.031 47.5949 100.165 48.0904C100.299 48.5859 100.366 49.1752 100.366 49.8583V57H98.5882V49.8382C98.5882 49.2288 98.5112 48.7567 98.3571 48.4219C98.2098 48.0804 97.9989 47.8426 97.7243 47.7087C97.4498 47.5681 97.1217 47.4978 96.74 47.4978C96.4319 47.4978 96.1574 47.5681 95.9163 47.7087C95.6819 47.8493 95.4844 48.0435 95.3237 48.2913C95.1629 48.5324 95.0391 48.8103 94.952 49.125C94.8717 49.4397 94.8315 49.7746 94.8315 50.1295ZM106.935 57.2009C106.286 57.2009 105.7 57.1038 105.177 56.9096C104.655 56.7154 104.21 56.4208 103.842 56.0257C103.473 55.6239 103.192 55.1183 102.998 54.5089C102.804 53.8996 102.706 53.1797 102.706 52.3493V51.1239C102.706 50.1663 102.817 49.356 103.038 48.6931C103.266 48.0301 103.57 47.4978 103.952 47.096C104.334 46.6875 104.766 46.3929 105.248 46.2121C105.73 46.0246 106.225 45.9308 106.734 45.9308C107.417 45.9308 108 46.0413 108.482 46.2623C108.964 46.4833 109.356 46.8114 109.657 47.2467C109.959 47.6819 110.18 48.2176 110.32 48.8538C110.468 49.49 110.541 50.2232 110.541 51.0536V52.0882H103.751V50.5714H108.763V50.3203C108.737 49.7578 108.66 49.2623 108.532 48.8337C108.412 48.4051 108.211 48.0703 107.93 47.8292C107.648 47.5815 107.25 47.4576 106.734 47.4576C106.406 47.4576 106.102 47.5145 105.82 47.6283C105.546 47.7355 105.308 47.9263 105.107 48.2009C104.913 48.4688 104.759 48.8404 104.645 49.3158C104.538 49.7913 104.484 50.394 104.484 51.1239V52.3493C104.484 52.9319 104.538 53.4342 104.645 53.856C104.759 54.2712 104.923 54.6161 105.137 54.8906C105.358 55.1585 105.626 55.3594 105.941 55.4933C106.262 55.6205 106.627 55.6842 107.036 55.6842C107.632 55.6842 108.124 55.5703 108.512 55.3426C108.901 55.1083 109.239 54.8103 109.527 54.4487L110.461 55.5636C110.267 55.8382 110.012 56.1027 109.698 56.3571C109.39 56.6049 109.008 56.8092 108.552 56.9699C108.104 57.1239 107.565 57.2009 106.935 57.2009ZM114.469 48.452V57H112.691V46.1317H114.368L114.469 48.452ZM114.037 51.154L113.314 51.1239C113.307 50.3806 113.391 49.6942 113.565 49.0647C113.746 48.4286 114 47.8761 114.328 47.4074C114.663 46.9386 115.061 46.577 115.523 46.3225C115.985 46.0614 116.498 45.9308 117.06 45.9308C117.502 45.9308 117.904 46.0045 118.266 46.1518C118.627 46.2924 118.935 46.5201 119.19 46.8348C119.444 47.1496 119.638 47.558 119.772 48.0603C119.913 48.5558 119.983 49.1618 119.983 49.8783V57H118.205V49.8583C118.205 49.2891 118.142 48.8337 118.015 48.4922C117.894 48.144 117.706 47.8929 117.452 47.7388C117.204 47.5781 116.89 47.4978 116.508 47.4978C116.16 47.4978 115.835 47.5949 115.533 47.7891C115.232 47.9833 114.968 48.2511 114.74 48.5926C114.519 48.9342 114.345 49.3259 114.218 49.7679C114.097 50.2031 114.037 50.6652 114.037 51.154ZM126.623 46.1317V47.558H121.55V46.1317H126.623ZM123.208 43.49H124.985V54.308C124.985 54.6763 125.029 54.9542 125.116 55.1417C125.21 55.3292 125.327 55.4531 125.468 55.5134C125.608 55.5737 125.759 55.6038 125.92 55.6038C126.04 55.6038 126.174 55.5904 126.321 55.5636C126.469 55.5301 126.569 55.5033 126.623 55.4833L126.613 57C126.492 57.0469 126.331 57.0904 126.131 57.1306C125.93 57.1775 125.675 57.2009 125.367 57.2009C124.985 57.2009 124.631 57.1105 124.302 56.9297C123.974 56.7489 123.71 56.4475 123.509 56.0257C123.308 55.5971 123.208 55.0212 123.208 54.298V43.49ZM135.552 42.375V57H133.704V42.375H135.552ZM140.484 48.9542V50.5413H135.201V48.9542H140.484ZM141.318 42.375V43.9621H135.201V42.375H141.318ZM148.641 54.4888V46.1317H150.419V57H148.731L148.641 54.4888ZM148.972 52.1987L149.675 52.1786C149.675 52.9018 149.612 53.5714 149.484 54.1875C149.364 54.7969 149.163 55.3259 148.882 55.7746C148.607 56.2232 148.242 56.5748 147.787 56.8292C147.331 57.077 146.772 57.2009 146.109 57.2009C145.661 57.2009 145.252 57.1239 144.884 56.9699C144.522 56.8158 144.208 56.5781 143.94 56.2567C143.679 55.9353 143.474 55.5167 143.327 55.0011C143.186 54.4855 143.116 53.8661 143.116 53.1429V46.1317H144.884V53.1629C144.884 53.6518 144.927 54.0569 145.015 54.3783C145.102 54.6931 145.219 54.9442 145.366 55.1317C145.513 55.3125 145.677 55.4397 145.858 55.5134C146.039 55.5871 146.223 55.6239 146.411 55.6239C147.04 55.6239 147.542 55.4732 147.917 55.1719C148.292 54.8638 148.56 54.452 148.721 53.9364C148.888 53.4141 148.972 52.8348 148.972 52.1987ZM154.868 48.452V57H153.09V46.1317H154.768L154.868 48.452ZM154.436 51.154L153.713 51.1239C153.706 50.3806 153.79 49.6942 153.964 49.0647C154.145 48.4286 154.4 47.8761 154.728 47.4074C155.062 46.9386 155.461 46.577 155.923 46.3225C156.385 46.0614 156.897 45.9308 157.46 45.9308C157.902 45.9308 158.304 46.0045 158.665 46.1518C159.027 46.2924 159.335 46.5201 159.589 46.8348C159.844 47.1496 160.038 47.558 160.172 48.0603C160.312 48.5558 160.383 49.1618 160.383 49.8783V57H158.605V49.8583C158.605 49.2891 158.541 48.8337 158.414 48.4922C158.294 48.144 158.106 47.8929 157.852 47.7388C157.604 47.5781 157.289 47.4978 156.907 47.4978C156.559 47.4978 156.234 47.5949 155.933 47.7891C155.632 47.9833 155.367 48.2511 155.14 48.5926C154.919 48.9342 154.744 49.3259 154.617 49.7679C154.497 50.2031 154.436 50.6652 154.436 51.154ZM168.75 54.8906V41.5714H170.518V57H168.901L168.75 54.8906ZM162.673 52.0882V51.0737C162.673 50.1763 162.76 49.4063 162.934 48.7634C163.108 48.1138 163.356 47.5815 163.677 47.1663C163.999 46.7444 164.384 46.433 164.833 46.2321C165.281 46.0313 165.777 45.9308 166.319 45.9308C166.882 45.9308 167.364 46.0446 167.766 46.2723C168.174 46.5 168.516 46.8315 168.79 47.2667C169.065 47.6953 169.279 48.2176 169.433 48.8337C169.594 49.4431 169.701 50.1328 169.754 50.9029V52.2589C169.694 53.0223 169.584 53.7087 169.423 54.3181C169.269 54.9275 169.055 55.4464 168.78 55.875C168.506 56.3036 168.164 56.6317 167.756 56.8594C167.347 57.0871 166.862 57.2009 166.299 57.2009C165.763 57.2009 165.275 57.0971 164.833 56.8895C164.391 56.6752 164.006 56.3571 163.677 55.9353C163.356 55.5067 163.108 54.9743 162.934 54.3382C162.76 53.6953 162.673 52.9453 162.673 52.0882ZM164.451 51.0737V52.0882C164.451 52.6908 164.494 53.2165 164.581 53.6652C164.669 54.1071 164.806 54.4754 164.993 54.7701C165.181 55.058 165.419 55.2723 165.706 55.4129C166.001 55.5536 166.353 55.6239 166.761 55.6239C167.257 55.6239 167.662 55.5033 167.977 55.2623C168.291 55.0212 168.542 54.7031 168.73 54.308C168.924 53.9063 169.078 53.4743 169.192 53.0123V50.1596C169.125 49.8181 169.028 49.49 168.901 49.1752C168.773 48.8538 168.613 48.5692 168.419 48.3214C168.231 48.067 168 47.8661 167.725 47.7188C167.458 47.5714 167.143 47.4978 166.781 47.4978C166.373 47.4978 166.018 47.5714 165.717 47.7188C165.422 47.8661 165.181 48.0871 164.993 48.3817C164.812 48.6763 164.675 49.048 164.581 49.4967C164.494 49.9453 164.451 50.471 164.451 51.0737Z" fill="#506263"/>
</svg>
