<svg width="48" height="48" viewBox="0 0 48 48" fill="none" xmlns="http://www.w3.org/2000/svg">
<path d="M32 21L32.8682 21.4961C33.0439 21.1887 33.0439 20.8113 32.8682 20.5039L32 21ZM28 28V29C28.3589 29 28.6902 28.8077 28.8682 28.4961L28 28ZM20 28L19.1318 28.4961C19.3098 28.8077 19.6411 29 20 29V28ZM16 21L15.1318 20.5039C14.9561 20.8113 14.9561 21.1887 15.1318 21.4961L16 21ZM20 14L20 13C19.6411 13 19.3098 13.1923 19.1318 13.5039L20 14ZM28 14L28.8682 13.5039C28.6902 13.1923 28.3589 13 28 13L28 14ZM31.1318 20.5039L27.1318 27.5039L28.8682 28.4961L32.8682 21.4961L31.1318 20.5039ZM28 27H20V29H28V27ZM20.8682 27.5039L16.8682 20.5039L15.1318 21.4961L19.1318 28.4961L20.8682 27.5039ZM16.8682 21.4961L20.8682 14.4961L19.1318 13.5039L15.1318 20.5039L16.8682 21.4961ZM20 15L28 15L28 13L20 13L20 15ZM27.1318 14.4961L31.1318 21.4961L32.8682 20.5039L28.8682 13.5039L27.1318 14.4961Z" fill="#6242FC"/>
<path d="M4 22L16 14L32 14L44 22L35 32.6603L13 32.6603L4 22Z" stroke="#6242FC" stroke-width="2" stroke-linecap="round" stroke-linejoin="round"/>
</svg>
